<svg width="130" height="40" viewBox="0 0 130 40" fill="none" xmlns="http://www.w3.org/2000/svg">
<path d="M128.967 11.5636C128.967 11.1369 128.716 10.9236 128.178 10.9307H127.303L127.311 13.1638H127.662V12.1966H128.035L128.651 13.1567H129.031L128.386 12.1752C128.723 12.1397 128.974 11.969 128.974 11.5636M128.027 11.9192H127.662V11.2152H128.121C128.364 11.2152 128.623 11.2578 128.623 11.5494C128.623 11.905 128.336 11.9192 128.027 11.9192Z" fill="#08BED5"/>
<path d="M128.056 10.1413C127.002 10.1413 126.12 10.9663 126.12 12.0543C126.12 13.1495 127.017 13.9674 128.07 13.9674C129.124 13.9674 129.999 13.1424 129.999 12.0401C129.999 10.9591 129.11 10.1413 128.056 10.1484M128.07 13.69C127.167 13.69 126.479 12.9931 126.472 12.0543C126.472 11.1369 127.153 10.4258 128.056 10.4258C128.952 10.4258 129.641 11.1298 129.648 12.0472C129.648 12.9789 128.967 13.69 128.07 13.69Z" fill="#08BED5"/>
<path d="M108.182 14.003H110.182L112.039 6.51432H113.394L111.53 13.9887H113.538L115.395 6.5001H117.467C116.506 7.52419 115.975 8.88252 116.004 10.2053C116.061 12.6162 117.474 14.1239 120.112 14.1167C121.955 14.1096 123.797 13.2136 124.55 11.6561L122.665 11.2934C122.113 12.1824 121.102 12.5166 120.27 12.5237C118.908 12.5237 117.954 11.8623 117.947 10.2764L124.952 10.248C125.181 9.62925 125.346 8.84696 125.332 8.21402C125.289 6.2583 123.891 4.7364 121.467 4.75062C119.969 4.75062 118.693 5.33378 117.761 6.21563L118.076 4.94975H115.796L116.599 1.6997H114.599L113.789 4.96397H112.441L113.251 1.71392H111.251L110.44 4.9782H108.039L107.666 6.47165C107.056 5.4689 105.909 4.80752 104.31 4.81463C101.005 4.82885 98.8042 7.61664 98.8544 10.2764C98.9046 12.6873 100.317 14.195 102.955 14.1879C104.805 14.1807 106.648 13.2847 107.393 11.7272L105.515 11.3645C104.956 12.2535 103.945 12.5877 103.106 12.5948C101.744 12.5948 100.79 11.9334 100.79 10.3475L107.788 10.3191C108.024 9.70037 108.182 8.91808 108.175 8.28514C108.161 7.64509 107.996 7.0477 107.702 6.53566H110.053L108.196 14.0101L108.182 14.003ZM121.288 6.34364C122.837 6.34364 123.668 7.29661 123.389 8.70473L118.205 8.72607C118.693 7.21838 119.861 6.35076 121.288 6.34364ZM106.218 8.76874L101.034 8.79007C101.521 7.28239 102.69 6.41476 104.124 6.40765C105.665 6.40765 106.504 7.36062 106.218 8.76874Z" fill="#08BED5"/>
<path d="M93.3338 14.0598L96.811 0.0142234L94.8035 0.0213351L91.3263 14.067L93.3338 14.0598Z" fill="#08BED5"/>
<path d="M96.6533 14.0456L100.131 0L98.1231 0.00711171L94.653 14.0527L96.6533 14.0456Z" fill="#08BED5"/>
<path d="M90.0501 14.0741L92.287 5.04931L90.2724 5.05642L88.0426 14.0812L90.0501 14.0741Z" fill="#08BED5"/>
<path d="M87.1321 13.0144L88.5875 7.12593L82.1349 7.15438L81.7262 8.81141L86.1427 8.79718L85.354 11.9406C84.6514 12.2748 83.6978 12.5308 82.6224 12.5379C80.4357 12.5451 78.672 11.2081 78.6218 8.80429C78.5572 5.79604 80.7511 3.07226 83.999 3.05803C85.8917 3.05092 87.1393 4.30969 87.5838 5.24844L89.2973 4.60839C88.7452 3.02959 86.7521 1.30855 84.1065 1.32278C79.6183 1.337 76.5569 4.97108 76.6358 8.87541C76.7075 12.4668 79.5825 14.2803 82.5364 14.2661C84.379 14.259 85.8774 13.7896 87.1393 13.0215" fill="#08BED5"/>
<path d="M93.0757 1.78504L91.061 1.79215L90.4803 4.16035L92.6885 3.32828L93.0757 1.78504Z" fill="#08BED5"/>
<path d="M0 1.36545L14.0524 36.9524C14.2818 37.5285 15.4361 40.0034 18.6553 39.9891C20.6843 39.982 22.5484 38.9224 23.4374 36.5684L28.535 23.0206C28.6999 22.5797 28.4274 22.2454 28.0976 22.1174C27.775 21.9965 27.3377 22.0534 27.1297 22.4659C27.0509 22.6152 24.9789 28.4682 24.6132 29.35C23.631 31.7538 22.4337 32.2231 21.516 32.2231C21.0428 32.2231 19.4009 32.024 18.2896 29.3998C18.2896 29.3998 11.3064 11.6988 9.04086 5.86716C7.4277 1.72103 3.42707 0.419591 0 1.36545Z" fill="#08BED5"/>
<path d="M112.656 36.4191C112.57 36.4191 112.484 36.4404 112.398 36.4831C112.204 36.5755 112.082 36.7533 112.068 36.9524C112.054 37.1089 112.111 37.2582 112.218 37.3649C113.416 38.4814 115.567 39.2637 115.588 39.2709C117.166 39.8682 119.194 40.11 121.317 39.9536C123.668 39.79 125.482 39.2495 127.024 38.2539C128.809 37.1018 129.892 35.3594 129.992 33.4677C130.056 32.3156 129.734 31.1848 129.074 30.1963C128.565 29.4425 127.884 28.774 127.031 28.2121C126.364 27.7854 125.618 27.3659 124.751 26.9391C123.84 26.4911 122.858 26.0857 121.991 25.7302C121.36 25.467 120.793 25.2323 120.234 24.9905C119.101 24.4856 118.019 23.9593 117.173 23.0704C116.621 22.3805 116.126 21.328 116.843 20.1617C117.388 19.2798 118.212 18.6682 119.352 18.2842L119.453 18.2486C119.496 18.2344 119.539 18.2202 119.582 18.206C120.091 18.0495 120.535 17.9428 120.937 17.8788C120.973 17.8788 121.008 17.8717 121.037 17.8646C121.145 17.8504 121.245 17.8362 121.331 17.829C121.625 17.7935 121.919 17.7722 122.199 17.7793H122.227C123.876 17.7793 125.461 18.1989 126.938 19.0452C127.074 19.1234 127.246 19.1234 127.382 19.038C127.518 18.9527 127.604 18.8105 127.597 18.6611C127.597 18.5189 127.526 18.398 127.411 18.334C127.117 18.1562 126.816 17.9713 126.615 17.8646L126.586 17.8504C123.36 16.2645 120.765 16.5987 119.517 16.7623L119.417 16.7765C119.288 16.7907 119.159 16.8121 119.037 16.8405C118.994 16.8405 118.972 16.8476 118.958 16.8476H118.908C118.908 16.8476 118.865 16.8619 118.858 16.8619H118.764V16.8832L118.671 16.9045C117.395 17.1677 116.19 17.6655 115.101 18.3695C113.315 19.5216 112.24 21.264 112.14 23.1557C112.075 24.3078 112.391 25.4386 113.05 26.4271C113.552 27.1809 114.247 27.8423 115.101 28.4042C115.882 28.9162 116.728 29.3571 117.373 29.6772C118.27 30.1181 119.216 30.5092 120.134 30.8861L120.162 30.9004C120.736 31.1351 121.324 31.3769 121.897 31.6329C123.03 32.1378 124.113 32.6641 124.959 33.553C125.504 34.25 126.006 35.3096 125.289 36.4617C124.722 37.3791 123.826 38.0192 122.543 38.4103C121.066 38.8584 119.539 38.8797 117.603 38.4957L117.517 38.4743C117.481 38.4672 117.445 38.4601 117.402 38.453C117.338 38.4388 117.302 38.4317 117.259 38.4246C117.209 38.4174 117.158 38.4032 117.108 38.389L116.986 38.3605C116.305 38.1899 115.617 37.9481 114.929 37.6352L114.893 37.6209C114.219 37.308 113.566 36.9382 112.957 36.5186C112.864 36.4546 112.756 36.4262 112.649 36.4262L112.656 36.4191Z" fill="#08BED5"/>
<path d="M42.6447 16.7125C40.078 17.0468 37.8626 18.014 36.0631 19.5856C33.5537 21.7832 32.2345 24.5638 32.1485 27.8352C32.0266 32.4009 33.9624 35.8643 37.8913 38.1259C41.3327 40.11 45.2832 40.5154 49.5419 39.3277C50.6173 39.0291 51.5566 38.5952 52.3452 38.0405C52.4743 37.9481 52.546 37.813 52.5603 37.6636V37.6067C52.5746 37.4147 52.4743 37.244 52.3094 37.1516C52.1373 37.0591 51.9437 37.0662 51.7788 37.1658C50.6245 37.9054 49.2479 38.3392 47.5774 38.4815C43.2685 38.8726 40.501 37.5 39.1101 34.2855C38.8879 33.7593 38.6943 33.2117 38.5366 32.6143V32.5716C38.2068 31.3769 38.0275 30.0896 37.9702 28.5108C37.9702 28.3615 37.963 28.2264 37.9558 28.0984C37.9558 28.0699 37.9558 28.0486 37.9558 28.0272C37.9558 28.0059 37.9558 27.9846 37.9558 27.9561C37.9558 27.5721 37.9558 27.2165 37.963 26.8751V26.7756L37.9773 26.5978C37.9773 26.5551 37.9773 26.5124 37.9845 26.4698C37.9845 26.3702 37.9917 26.2849 38.006 26.2066C38.0204 26.0857 38.0275 25.972 38.0347 25.8653V25.8155C38.2283 23.7247 38.6943 22.0534 39.5188 20.5457C40.3075 19.1092 41.3542 18.1989 42.8097 17.6939C43.3832 17.4877 44.0285 17.4023 44.5304 17.4592C44.5877 17.4592 45.6201 17.5019 46.6239 18.1277C47.5918 18.7465 48.2442 19.479 48.7461 20.4959C49.6853 22.4232 49.9147 24.4998 50.0223 26.2778C50.0366 26.484 50.0079 26.6049 49.9434 26.676C49.8789 26.74 49.7498 26.7756 49.5347 26.7756C47.1329 26.7756 40.4222 26.8111 40.4222 26.8111C40.078 26.8111 39.7984 27.0885 39.7984 27.4227C39.7984 27.757 40.078 28.0272 40.4293 28.0272L55.4425 27.9703L55.4281 27.0103C55.421 24.7274 54.6753 22.5868 53.2701 20.8017C51.9365 19.1092 50.0653 17.8362 47.9861 17.2032L47.9287 17.1819C46.1578 16.6058 44.4873 16.5703 43.3976 16.6414H43.2757C43.0462 16.6627 42.8813 16.6841 42.781 16.6983H42.738C42.738 16.6983 42.7164 16.6983 42.7021 16.7054H42.6591L42.6447 16.7125Z" fill="#08BED5"/>
<path d="M59.522 34.1362C59.522 39.4913 63.2932 40.0531 65.0856 39.6122V22.5014C65.0856 17.1463 61.3144 16.5845 59.522 17.0254V34.1362Z" fill="#08BED5"/>
<path d="M66.6916 19.0949C66.8206 19.3225 67.1146 19.4007 67.344 19.2656C67.9463 18.91 68.5126 18.6611 69.0288 18.5189C69.6669 18.3411 70.262 18.2486 70.8212 18.2486C71.9755 18.2486 72.965 18.6185 73.8038 19.3865C74.8219 20.2968 75.3022 21.5058 75.3094 23.1842L75.3596 34.1362C75.3596 39.4913 79.1308 40.0531 80.9232 39.6122L80.8587 24.1514C80.8157 20.9155 79.2384 18.5758 76.2988 17.3668C73.1442 16.0725 69.9681 16.4494 66.8493 18.4762C66.6414 18.6113 66.5697 18.8816 66.6916 19.0949Z" fill="#08BED5"/>
<path d="M107.738 22.4872C107.738 17.1321 103.966 16.5703 102.174 17.0112V34.122C102.174 39.4771 105.945 40.0389 107.738 39.598V22.4872Z" fill="#08BED5"/>
<path d="M100.568 37.5072C100.439 37.2796 100.145 37.2013 99.9155 37.3365C99.3132 37.6921 98.7468 37.941 98.2306 38.0832C97.5925 38.261 96.9974 38.3534 96.4382 38.3534C95.2839 38.3534 94.3017 37.9836 93.4557 37.2156C92.4376 36.3053 91.9572 35.0963 91.95 33.4179L91.8999 22.4801C91.8999 17.125 88.1286 16.5632 86.3363 17.0041L86.4008 32.4436C86.4438 35.6794 88.0211 38.0192 90.9606 39.2282C94.1153 40.5225 97.2914 40.1456 100.41 38.1188C100.618 37.9836 100.69 37.7134 100.568 37.5V37.5072Z" fill="#08BED5"/>
<path d="M34.9303 4.11057C34.9303 2.03395 33.2382 0.355585 31.1447 0.355585C29.0512 0.355585 27.3592 2.03395 27.3592 4.11057C27.3592 4.33103 27.3807 4.55149 27.4165 4.76484C27.4165 4.77196 27.4165 4.77907 27.4165 4.78618C27.8252 7.19705 29.6534 10.5751 29.9259 14.4723C29.9402 14.6928 30.0478 14.8919 30.2629 14.9559C30.5066 15.027 30.7719 14.9132 30.8651 14.6857L34.6435 5.51157C34.8227 5.07776 34.9159 4.60839 34.9159 4.11057H34.9303Z" fill="#08BED5"/>
</svg>
